<?xml version="1.0" encoding="utf-8"?>
<svg id="master-artboard" viewBox="0 0 1059.3262939453125 726.6459350585938" version="1.1" xmlns="http://www.w3.org/2000/svg" x="0px" y="0px" style="enable-background:new 0 0 1096 780;" width="1059.3262939453125px" height="726.6459350585938px"><defs><style id="ee-google-fonts">@import url(https://fonts.googleapis.com/css?family=Abril+Fatface:400|Trocchi:400);</style></defs><rect id="ee-background" x="0" y="0" width="1059.3262939453125" height="726.6459350585938" style="fill: white; fill-opacity: 0; pointer-events: none;"/>

<path class="st0" d="M170,149.4c-10.2,0-14.5,3.1-22.9,13.2L134,178.3l-13.1-15.7c-8.4-10-12.7-13.2-22.9-13.2&#10;&#9;&#9;c-1.7,0-3.5,0.1-5.4,0.3c-7.1,0.7-18.1,8.2-19.8,26.2v7.5c2.1,22.5,22.7,48.5,61.3,77.2c38.6-28.7,59.2-54.6,61.3-77.2v-7.5&#10;&#9;&#9;c-1.7-18-12.7-25.5-19.8-26.2C173.5,149.5,171.7,149.4,170,149.4L170,149.4z" style="fill: rgb(230, 231, 232);" transform="matrix(1, 0, 0, 1, -25.524940490722656, -11.74616527557373)"/><path class="st0" d="M349,312.4c-7.6,0-10.8,2.3-17.1,9.9L322,334l-9.8-11.7c-6.3-7.5-9.5-9.9-17.1-9.9c-1.3,0-2.6,0.1-4.1,0.2&#10;&#9;&#9;c-5.3,0.5-13.6,6.2-14.8,19.6v5.6c1.6,16.9,17,36.3,45.9,57.7c28.9-21.5,44.3-40.9,45.9-57.7v-5.6c-1.3-13.4-9.5-19.1-14.8-19.6&#10;&#9;&#9;C351.6,312.5,350.2,312.4,349,312.4L349,312.4z" style="fill: rgb(230, 231, 232);" transform="matrix(1, 0, 0, 1, -25.524940490722656, -11.74616527557373)"/><path class="st0" d="M495,33c-10.5,0-14.8,3.2-23.5,13.5L458,62.6l-13.5-16.1C435.9,36.2,431.5,33,421,33c-1.7,0-3.6,0.1-5.6,0.3&#10;&#9;&#9;c-7.3,0.7-18.6,8.5-20.3,26.9v7.7c2.1,23.1,23.3,49.7,62.9,79.1c39.6-29.4,60.7-56,62.9-79.1v-7.7c-1.7-18.4-13-26.2-20.3-26.9&#10;&#9;&#9;C498.5,33.1,496.7,33,495,33L495,33z" style="fill: rgb(230, 231, 232);" transform="matrix(1, 0, 0, 1, -25.524940490722656, -11.74616527557373)"/><path class="st0" d="M674.6,265c-7,0-9.9,2.1-15.6,9l-9,10.7l-9-10.7c-5.8-6.9-8.7-9-15.6-9c-1.1,0-2.4,0.1-3.7,0.2&#10;&#9;&#9;c-4.8,0.5-12.4,5.6-13.5,17.9v5.1c1.4,15.4,15.5,33.1,41.9,52.8c26.4-19.6,40.5-37.3,41.9-52.8v-5.1c-1.2-12.3-8.7-17.4-13.6-17.9&#10;&#9;&#9;C677,265.1,675.8,265,674.6,265L674.6,265z" style="fill: rgb(230, 231, 232);" transform="matrix(1, 0, 0, 1, -25.524940490722656, -11.74616527557373)"/><path class="st0" d="M838.9,131.3c-9.3,0-13.2,2.9-20.9,12l-12,14.3l-12-14.3c-7.7-9.2-11.6-12-20.9-12c-1.5,0-3.2,0.1-5,0.3&#10;&#9;&#9;c-6.5,0.6-16.5,7.5-18.1,23.9v6.9c1.9,20.6,20.7,44.2,55.9,70.4c35.2-26.2,54-49.8,55.9-70.4v-6.8c-1.5-16.4-11.6-23.3-18.1-23.9&#10;&#9;&#9;C842.1,131.4,840.4,131.3,838.9,131.3L838.9,131.3z" style="fill: rgb(230, 231, 232);" transform="matrix(1, 0, 0, 1, -25.524940490722656, -11.74616527557373)"/><path class="st0" d="M1034,378.4c-7.6,0-10.8,2.3-17.1,9.9L1007,400l-9.8-11.7c-6.3-7.5-9.5-9.9-17.1-9.9c-1.3,0-2.6,0.1-4.1,0.2&#10;&#9;&#9;c-5.3,0.5-13.6,6.2-14.8,19.6v5.6c1.6,16.9,17,36.3,45.9,57.8c28.9-21.5,44.3-40.9,45.9-57.8v-5.6c-1.3-13.4-9.5-19.1-14.8-19.6&#10;&#9;&#9;C1036.6,378.5,1035.2,378.4,1034,378.4L1034,378.4z" style="fill: rgb(230, 231, 232);" transform="matrix(1, 0, 0, 1, -25.524940490722656, -11.74616527557373)"/><path class="st0" d="M201.8,778.8c-2.3-7.7-11.6-236-12.4-246.1c-0.8-10.1,4.6-21.7,13.9-29.4c9.3-7.7,31-29.4,32.5-40.2&#10;&#9;&#9;s7.7-18.6,17-24c9.3-5.4,20.1-9.3,18.6-20.1c-1.5-10.8-28.6-10.8-37.9,0.8c-9.3,11.6-20.9,24-33.3,20.9&#10;&#9;&#9;c-12.4-3.1-13.2-31-13.2-42.6s3.9-48,4.6-68.9c0.8-20.9-4.6-24-12.4-20.9c-7.7,3.1-13.2,22.4-11.6,44.1&#10;&#9;&#9;c1.5,21.7-4.6,44.1-10.8,44.1s-6.2-11.6-7.7-20.9c-1.5-9.3-7-27.1-12.4-43.2c-5.4-16.1-15.5-35-24-30.3c-8.5,4.6-3.1,20.1,5.4,46.4&#10;&#9;&#9;c8.5,26.3,11.6,53.4,9.3,52.6c-2.3-0.8-9.3-11.6-13.2-21.7c-3.9-10.1-17.8-36.4-20.9-47.1c-3.1-10.7-15.5-10.2-17-3.2&#10;&#9;&#9;c-1.5,7,10.8,44.1,23.2,65.8c12.4,21.7,8.5,28.6,0.8,24c-7.7-4.6-32.5-31.7-37.9-38.7c-5.4-7-13.9-12.4-16.3-4.6&#10;&#9;&#9;c-2.3,7.7,23.2,43.3,37.1,57.3c13.9,13.9,11.6,41.8,25.5,58.8c13.9,17,10.1,31.7,12.4,50.3c2,16.2-4.8,193.4-6.6,238.2h87.2&#10;&#9;&#9;C201.9,779.6,201.9,779.2,201.8,778.8z" style="fill: rgb(230, 231, 232);" transform="matrix(1, 0, 0, 1, -25.524940490722656, -11.74616527557373)"/><path class="st0" d="M349.1,600.8c1.8-14.4-1.2-25.8,9.6-38.9c10.8-13.2,9-34.7,19.8-45.5c10.8-10.8,30.5-38.3,28.7-44.3&#10;&#9;&#9;c-1.8-6-8.4-1.8-12.6,3.6c-4.2,5.4-23.4,26.4-29.3,29.9c-6,3.6-9-1.8,0.6-18.6c9.6-16.8,19.2-45.5,18-50.9&#10;&#9;&#9;c-1.2-5.4-10.8-5.8-13.2,2.5c-2.4,8.3-13.2,28.6-16.2,36.4c-3,7.8-8.4,16.2-10.2,16.8c-1.8,0.6,0.6-20.4,7.2-40.7&#10;&#9;&#9;c6.6-20.4,10.8-32.3,4.2-35.9c-6.6-3.6-14.4,11-18.6,23.5c-4.2,12.5-8.4,26.2-9.6,33.4c-1.2,7.2-1.2,16.2-6,16.2&#10;&#9;&#9;s-9.6-17.4-8.4-34.1c1.2-16.8-3-31.7-9-34.1c-6-2.4-10.2,0-9.6,16.2c0.6,16.2,3.6,44.3,3.6,53.3c0,9-0.6,30.5-10.2,32.9&#10;&#9;&#9;c-9.6,2.4-18.6-7.2-25.8-16.2c-7.2-9-28.1-9-29.3-0.6c-1.2,8.4,7.2,11.4,14.4,15.6c7.2,4.2,12,10.2,13.2,18.6&#10;&#9;&#9;c1.2,8.4,18,25.2,25.2,31.1c7.2,6,11.4,15,10.8,22.8c-0.6,7.2-6.8,159.7-9.1,186.6H354C352.4,739,347.6,612.8,349.1,600.8z" style="fill: rgb(230, 231, 232);" transform="matrix(1, 0, 0, 1, -25.524940490722656, -11.74616527557373)"/><path class="st0" d="M513.3,389.8c-0.8-10.1,4.6-21.7,13.9-29.4c9.3-7.7,31-29.4,32.5-40.2c1.5-10.8,7.7-18.6,17-24&#10;&#9;&#9;c9.3-5.4,20.1-9.3,18.6-20.1c-1.5-10.8-28.6-10.8-37.9,0.8c-9.3,11.6-20.9,24-33.3,20.9c-12.4-3.1-13.2-31-13.2-42.6&#10;&#9;&#9;c0-11.6,3.9-48,4.6-68.9c0.8-20.9-4.6-24-12.4-20.9c-7.7,3.1-13.2,22.4-11.6,44.1c1.5,21.7-4.6,44.1-10.8,44.1&#10;&#9;&#9;c-6.2,0-6.2-11.6-7.7-20.9c-1.5-9.3-7-27.1-12.4-43.2c-5.4-16.1-15.5-35-24-30.3c-8.5,4.6-3.1,20.1,5.4,46.4&#10;&#9;&#9;c8.5,26.3,11.6,53.4,9.3,52.6c-2.3-0.8-9.3-11.6-13.2-21.7c-3.9-10.1-17.8-36.4-20.9-47.1c-3.1-10.7-15.5-10.2-17-3.2&#10;&#9;&#9;s10.8,44.1,23.2,65.8c12.4,21.7,8.5,28.6,0.8,24c-7.7-4.6-32.5-31.7-37.9-38.7c-5.4-7-13.9-12.4-16.3-4.6&#10;&#9;&#9;c-2.3,7.7,23.2,43.3,37.1,57.3c13.9,13.9,11.6,41.8,25.5,58.8c13.9,17,10.1,31.7,12.4,50.3c2,15.8-4.4,297-6.4,381.1h86&#10;&#9;&#9;C521.7,714.2,514,398.9,513.3,389.8z" style="fill: rgb(230, 231, 232);" transform="matrix(1, 0, 0, 1, -25.524940490722656, -11.74616527557373)"/><path class="st0" d="M667.1,541.2c1.8-14.4-1.2-25.8,9.6-38.9c10.8-13.2,9-34.7,19.8-45.5c10.8-10.8,30.5-38.3,28.7-44.3&#10;&#9;&#9;c-1.8-6-8.4-1.8-12.6,3.6c-4.2,5.4-23.4,26.4-29.3,29.9c-6,3.6-9-1.8,0.6-18.6c9.6-16.8,19.2-45.5,18-50.9s-10.8-5.8-13.2,2.5&#10;&#9;&#9;c-2.4,8.3-13.2,28.6-16.2,36.4c-3,7.8-8.4,16.2-10.2,16.8c-1.8,0.6,0.6-20.4,7.2-40.7c6.6-20.4,10.8-32.3,4.2-35.9&#10;&#9;&#9;c-6.6-3.6-14.4,11-18.6,23.5c-4.2,12.5-8.4,26.2-9.6,33.4c-1.2,7.2-1.2,16.2-6,16.2c-4.8,0-9.6-17.4-8.4-34.1&#10;&#9;&#9;c1.2-16.8-3-31.7-9-34.1c-6-2.4-10.2,0-9.6,16.2c0.6,16.2,3.6,44.3,3.6,53.3c0,9-0.6,30.5-10.2,32.9c-9.6,2.4-18.6-7.2-25.8-16.2&#10;&#9;&#9;c-7.2-9-28.1-9-29.3-0.6c-1.2,8.4,7.2,11.4,14.4,15.6c7.2,4.2,12,10.2,13.2,18.6c1.2,8.4,18,25.2,25.2,31.1&#10;&#9;&#9;c7.2,6,11.4,15,10.8,22.8c-0.5,6.8-6.1,196.2-8.7,246.1h66.2C670.2,720.6,665.6,553,667.1,541.2z" style="fill: rgb(230, 231, 232);" transform="matrix(1, 0, 0, 1, -25.524940490722656, -11.74616527557373)"/><path class="st0" d="M855.1,475.1c-0.8-10.1,4.6-21.7,13.9-29.4c9.3-7.7,31-29.4,32.5-40.2c1.5-10.8,7.7-18.6,17-24&#10;&#9;&#9;c9.3-5.4,20.1-9.3,18.6-20.1c-1.5-10.8-28.6-10.8-37.9,0.8c-9.3,11.6-20.9,24-33.3,20.9c-12.4-3.1-13.2-31-13.2-42.6&#10;&#9;&#9;c0-11.6,3.9-48,4.6-68.9c0.8-20.9-4.6-24-12.4-20.9c-7.7,3.1-13.2,22.4-11.6,44.1c1.5,21.7-4.6,44.1-10.8,44.1&#10;&#9;&#9;c-6.2,0-6.2-11.6-7.7-20.9c-1.5-9.3-7-27.1-12.4-43.2c-5.4-16.1-15.5-35-24-30.3c-8.5,4.6-3.1,20.1,5.4,46.4&#10;&#9;&#9;c8.5,26.3,11.6,53.4,9.3,52.6c-2.3-0.8-9.3-11.6-13.2-21.7c-3.9-10.1-17.8-36.4-20.9-47.1c-3.1-10.7-15.5-10.2-17-3.2&#10;&#9;&#9;c-1.5,7,10.8,44.1,23.2,65.8c12.4,21.7,8.5,28.6,0.8,24c-7.7-4.6-32.5-31.7-37.9-38.7c-5.4-7-13.9-12.4-16.3-4.6&#10;&#9;&#9;c-2.3,7.7,23.2,43.3,37.1,57.3c13.9,13.9,11.6,41.8,25.5,58.8c13.9,17,10.1,31.7,12.4,50.3c1.9,15.6-4.3,228.1-6.3,295.7h86&#10;&#9;&#9;C863.5,729.6,855.8,484.3,855.1,475.1z" style="fill: rgb(230, 231, 232);" transform="matrix(1, 0, 0, 1, -25.524940490722656, -11.74616527557373)"/><path class="st0" d="M1022.7,656.4c1.8-14.4-1.2-25.8,9.6-38.9c10.8-13.2,9-34.7,19.8-45.5c10.8-10.8,30.5-38.3,28.7-44.3&#10;&#9;&#9;c-1.8-6-8.4-1.8-12.6,3.6c-4.2,5.4-23.4,26.3-29.3,29.9c-6,3.6-9-1.8,0.6-18.6c9.6-16.8,19.2-45.5,18-50.9&#10;&#9;&#9;c-1.2-5.4-10.8-5.8-13.2,2.5c-2.4,8.3-13.2,28.6-16.2,36.4c-3,7.8-8.4,16.2-10.2,16.8c-1.8,0.6,0.6-20.4,7.2-40.7&#10;&#9;&#9;c6.6-20.4,10.8-32.3,4.2-35.9c-6.6-3.6-14.4,11-18.6,23.5c-4.2,12.5-8.4,26.2-9.6,33.4s-1.2,16.2-6,16.2s-9.6-17.4-8.4-34.1&#10;&#9;&#9;c1.2-16.8-3-31.7-9-34.1c-6-2.4-10.2,0-9.6,16.2c0.6,16.2,3.6,44.3,3.6,53.3c0,9-0.6,30.5-10.2,32.9c-9.6,2.4-18.6-7.2-25.8-16.2&#10;&#9;&#9;c-7.2-9-28.1-9-29.3-0.6c-1.2,8.4,7.2,11.4,14.4,15.6c7.2,4.2,12,10.2,13.2,18.6c1.2,8.4,18,25.2,25.2,31.1&#10;&#9;&#9;c7.2,6,11.4,15,10.8,22.8c-0.5,7.1,0,108-1.3,131h65.6C1030.6,747.9,1021.3,667.8,1022.7,656.4z" style="fill: rgb(230, 231, 232);" transform="matrix(1, 0, 0, 1, -25.524940490722656, -11.74616527557373)"/><path class="st1" d="M195.1,778.8c-2.3-7.7-11.6-236-12.4-246.1c-0.8-10.1,4.6-21.7,13.9-29.4c9.3-7.7,31-29.4,32.5-40.2&#10;&#9;&#9;c1.5-10.8,7.7-18.6,17-24c9.3-5.4,20.1-9.3,18.6-20.1c-1.5-10.8-28.6-10.8-37.9,0.8c-9.3,11.6-20.9,24-33.3,20.9&#10;&#9;&#9;c-12.4-3.1-13.2-31-13.2-42.6s3.9-48,4.6-68.9c0.8-20.9-4.6-24-12.4-20.9c-7.7,3.1-13.2,22.4-11.6,44.1&#10;&#9;&#9;c1.5,21.7-4.6,44.1-10.8,44.1c-6.2,0-6.2-11.6-7.7-20.9c-1.5-9.3-7-27.1-12.4-43.2c-5.4-16.1-15.5-35-24-30.3&#10;&#9;&#9;c-8.5,4.6-3.1,20.1,5.4,46.4c8.5,26.3,11.6,53.4,9.3,52.6c-2.3-0.8-9.3-11.6-13.2-21.7c-3.9-10.1-17.8-36.4-20.9-47.1&#10;&#9;&#9;c-3.1-10.7-15.5-10.2-17-3.2c-1.5,7,10.8,44.1,23.2,65.8c12.4,21.7,8.5,28.6,0.8,24c-7.7-4.6-32.5-31.7-37.9-38.7&#10;&#9;&#9;c-5.4-7-13.9-12.4-16.3-4.6c-2.3,7.7,23.2,43.3,37.1,57.3c13.9,13.9,11.6,41.8,25.5,58.8c13.9,17,10.1,31.7,12.4,50.3&#10;&#9;&#9;c2,16.2-4.8,193.4-6.6,238.2h87.2C195.3,779.6,195.2,779.2,195.1,778.8z" style="fill: rgb(237, 28, 36);" transform="matrix(1, 0, 0, 1, -25.524940490722656, -11.74616527557373)"/><path class="st2" d="M342.4,600.8c1.8-14.4-1.2-25.8,9.6-38.9c10.8-13.2,9-34.7,19.8-45.5c10.8-10.8,30.5-38.3,28.7-44.3&#10;&#9;&#9;c-1.8-6-8.4-1.8-12.6,3.6c-4.2,5.4-23.4,26.4-29.3,29.9c-6,3.6-9-1.8,0.6-18.6c9.6-16.8,19.2-45.5,18-50.9&#10;&#9;&#9;c-1.2-5.4-10.8-5.8-13.2,2.5c-2.4,8.3-13.2,28.6-16.2,36.4c-3,7.8-8.4,16.2-10.2,16.8c-1.8,0.6,0.6-20.4,7.2-40.7&#10;&#9;&#9;c6.6-20.4,10.8-32.3,4.2-35.9s-14.4,11-18.6,23.5c-4.2,12.5-8.4,26.2-9.6,33.4c-1.2,7.2-1.2,16.2-6,16.2s-9.6-17.4-8.4-34.1&#10;&#9;&#9;c1.2-16.8-3-31.7-9-34.1c-6-2.4-10.2,0-9.6,16.2c0.6,16.2,3.6,44.3,3.6,53.3c0,9-0.6,30.5-10.2,32.9c-9.6,2.4-18.6-7.2-25.8-16.2&#10;&#9;&#9;c-7.2-9-28.1-9-29.3-0.6c-1.2,8.4,7.2,11.4,14.4,15.6c7.2,4.2,12,10.2,13.2,18.6c1.2,8.4,18,25.2,25.2,31.1&#10;&#9;&#9;c7.2,6,11.4,15,10.8,22.8c-0.6,7.2-6.8,159.7-9.1,186.6h66.7C345.7,739,340.9,612.8,342.4,600.8z" style="fill: rgb(0, 167, 157);" transform="matrix(1, 0, 0, 1, -25.524940490722656, -11.74616527557373)"/><path class="st3" d="M506.6,389.8c-0.8-10.1,4.6-21.7,13.9-29.4c9.3-7.7,31-29.4,32.5-40.2c1.5-10.8,7.7-18.6,17-24&#10;&#9;&#9;c9.3-5.4,20.1-9.3,18.6-20.1c-1.5-10.8-28.6-10.8-37.9,0.8c-9.3,11.6-20.9,24-33.3,20.9c-12.4-3.1-13.2-31-13.2-42.6&#10;&#9;&#9;c0-11.6,3.9-48,4.6-68.9c0.8-20.9-4.6-24-12.4-20.9c-7.7,3.1-13.2,22.4-11.6,44.1c1.5,21.7-4.6,44.1-10.8,44.1&#10;&#9;&#9;c-6.2,0-6.2-11.6-7.7-20.9c-1.5-9.3-7-27.1-12.4-43.2c-5.4-16.1-15.5-35-24-30.3c-8.5,4.6-3.1,20.1,5.4,46.4s11.6,53.4,9.3,52.6&#10;&#9;&#9;c-2.3-0.8-9.3-11.6-13.2-21.7c-3.9-10.1-17.8-36.4-20.9-47.1c-3.1-10.7-15.5-10.2-17-3.2c-1.5,7,10.8,44.1,23.2,65.8&#10;&#9;&#9;c12.4,21.7,8.5,28.6,0.8,24c-7.7-4.6-32.5-31.7-37.9-38.7c-5.4-7-13.9-12.4-16.3-4.6c-2.3,7.7,23.2,43.3,37.1,57.3&#10;&#9;&#9;c13.9,13.9,11.6,41.8,25.5,58.8c13.9,17,10.1,31.7,12.4,50.3c2,15.8-4.4,297-6.4,381.1h86C515,714.2,507.3,398.9,506.6,389.8z" style="fill: rgb(251, 173, 24);" transform="matrix(1, 0, 0, 1, -25.524940490722656, -11.74616527557373)"/><path class="st4" d="M660.4,541.2c1.8-14.4-1.2-25.8,9.6-38.9c10.8-13.2,9-34.7,19.8-45.5c10.8-10.8,30.5-38.3,28.7-44.3&#10;&#9;&#9;c-1.8-6-8.4-1.8-12.6,3.6c-4.2,5.4-23.4,26.4-29.3,29.9c-6,3.6-9-1.8,0.6-18.6c9.6-16.8,19.2-45.5,18-50.9s-10.8-5.8-13.2,2.5&#10;&#9;&#9;c-2.4,8.3-13.2,28.6-16.2,36.4c-3,7.8-8.4,16.2-10.2,16.8c-1.8,0.6,0.6-20.4,7.2-40.7c6.6-20.4,10.8-32.3,4.2-35.9&#10;&#9;&#9;c-6.6-3.6-14.4,11-18.6,23.5c-4.2,12.5-8.4,26.2-9.6,33.4c-1.2,7.2-1.2,16.2-6,16.2c-4.8,0-9.6-17.4-8.4-34.1&#10;&#9;&#9;c1.2-16.8-3-31.7-9-34.1c-6-2.4-10.2,0-9.6,16.2c0.6,16.2,3.6,44.3,3.6,53.3c0,9-0.6,30.5-10.2,32.9c-9.6,2.4-18.6-7.2-25.8-16.2&#10;&#9;&#9;c-7.2-9-28.1-9-29.3-0.6c-1.2,8.4,7.2,11.4,14.4,15.6c7.2,4.2,12,10.2,13.2,18.6c1.2,8.4,18,25.2,25.2,31.1&#10;&#9;&#9;c7.2,6,11.4,15,10.8,22.8c-0.5,6.8-6.1,196.2-8.7,246.1h66.2C663.5,720.6,658.9,553,660.4,541.2z" style="fill: rgb(0, 144, 214);" transform="matrix(1, 0, 0, 1, -25.524940490722656, -11.74616527557373)"/><path class="st5" d="M848.4,475.1c-0.8-10.1,4.6-21.7,13.9-29.4c9.3-7.7,31-29.4,32.5-40.2c1.5-10.8,7.7-18.6,17-24&#10;&#9;&#9;c9.3-5.4,20.1-9.3,18.6-20.1c-1.5-10.8-28.6-10.8-37.9,0.8c-9.3,11.6-20.9,24-33.3,20.9c-12.4-3.1-13.2-31-13.2-42.6&#10;&#9;&#9;c0-11.6,3.9-48,4.6-68.9c0.8-20.9-4.6-24-12.4-20.9c-7.7,3.1-13.2,22.4-11.6,44.1c1.5,21.7-4.6,44.1-10.8,44.1&#10;&#9;&#9;c-6.2,0-6.2-11.6-7.7-20.9c-1.5-9.3-7-27.1-12.4-43.2c-5.4-16.1-15.5-35-24-30.3c-8.5,4.6-3.1,20.1,5.4,46.4&#10;&#9;&#9;c8.5,26.3,11.6,53.4,9.3,52.6c-2.3-0.8-9.3-11.6-13.2-21.7c-3.9-10.1-17.8-36.4-20.9-47.1c-3.1-10.7-15.5-10.2-17-3.2&#10;&#9;&#9;c-1.5,7,10.8,44.1,23.2,65.8c12.4,21.7,8.5,28.6,0.8,24c-7.7-4.6-32.5-31.7-37.9-38.7c-5.4-7-13.9-12.4-16.3-4.6&#10;&#9;&#9;c-2.3,7.7,23.2,43.3,37.1,57.3c13.9,13.9,11.6,41.8,25.5,58.8c13.9,17,10.1,31.7,12.4,50.3c1.9,15.6-4.3,228.1-6.3,295.7h86&#10;&#9;&#9;C856.9,729.6,849.1,484.3,848.4,475.1z" style="fill: rgb(238, 42, 123);" transform="matrix(1, 0, 0, 1, -25.524940490722656, -11.74616527557373)"/><path class="st6" d="M1016.1,656.4c1.8-14.4-1.2-25.8,9.6-38.9c10.8-13.2,9-34.7,19.8-45.5c10.8-10.8,30.5-38.3,28.7-44.3&#10;&#9;&#9;c-1.8-6-8.4-1.8-12.6,3.6c-4.2,5.4-23.4,26.3-29.3,29.9c-6,3.6-9-1.8,0.6-18.6c9.6-16.8,19.2-45.5,18-50.9&#10;&#9;&#9;c-1.2-5.4-10.8-5.8-13.2,2.5c-2.4,8.3-13.2,28.6-16.2,36.4c-3,7.8-8.4,16.2-10.2,16.8c-1.8,0.6,0.6-20.4,7.2-40.7&#10;&#9;&#9;c6.6-20.4,10.8-32.3,4.2-35.9c-6.6-3.6-14.4,11-18.6,23.5c-4.2,12.5-8.4,26.2-9.6,33.4c-1.2,7.2-1.2,16.2-6,16.2&#10;&#9;&#9;s-9.6-17.4-8.4-34.1c1.2-16.8-3-31.7-9-34.1c-6-2.4-10.2,0-9.6,16.2c0.6,16.2,3.6,44.3,3.6,53.3c0,9-0.6,30.5-10.2,32.9&#10;&#9;&#9;c-9.6,2.4-18.6-7.2-25.8-16.2c-7.2-9-28.1-9-29.3-0.6c-1.2,8.4,7.2,11.4,14.4,15.6c7.2,4.2,12,10.2,13.2,18.6&#10;&#9;&#9;c1.2,8.4,18,25.2,25.2,31.1c7.2,6,11.4,15,10.8,22.8c-0.5,7.1,0,108-1.3,131h65.6C1023.9,747.9,1014.6,667.8,1016.1,656.4z" style="fill: rgb(141, 198, 63);" transform="matrix(1, 0, 0, 1, -25.524940490722656, -11.74616527557373)"/><g transform="matrix(1, 0, 0, 1, -25.524940490722656, -11.74616527557373)">
		<path class="st7" d="M150.6,431.4c0.9,0,1.8,0,2.8,0.1c6,0.6,13,6.1,13.8,16.7v3.5c-0.8,10.1-8.4,22.6-30.8,38.3&#10;&#9;&#9;&#9;c-22.3-15.7-30-28.1-30.8-38.3v-3.5c0.8-10.6,7.8-16.1,13.8-16.7c1-0.1,1.9-0.1,2.8-0.1c7,0,10.3,3,14.1,7.6&#10;&#9;&#9;&#9;C140.3,434.4,143.7,431.4,150.6,431.4 M150.6,438.1c-4,0-5.7,1.2-9,5.2l-5.2,6.1l-5.2-6.1c-3.3-3.9-5-5.2-9-5.2&#10;&#9;&#9;&#9;c-0.7,0-1.4,0-2.1,0.1c-2.8,0.3-7.1,3.2-7.8,10.3v2.9c0.8,8.8,8.9,19,24,30.2c15.1-11.2,23.2-21.4,24-30.2v-2.9&#10;&#9;&#9;&#9;c-0.7-7-5-10-7.8-10.3C152,438.1,151.3,438.1,150.6,438.1L150.6,438.1z" style="fill: rgb(255, 255, 255);"/>
	</g><path class="st7" d="M334.7,518.4c0.7,0,1.5,0,2.3,0.1c5,0.5,10.8,5.1,11.5,13.8v2.9c-0.7,8.4-7,18.7-25.5,31.7&#10;&#9;&#9;&#9;c-18.5-13-24.8-23.3-25.5-31.7v-2.9c0.7-8.8,6.5-13.3,11.5-13.8c0.8-0.1,1.6-0.1,2.3-0.1c5.8,0,8.5,2.5,11.7,6.3&#10;&#9;&#9;&#9;C326.2,520.9,328.9,518.4,334.7,518.4 M334.7,523.9c-3.3,0-4.7,1-7.4,4.3l-4.3,5.1l-4.3-5.1c-2.7-3.3-4.1-4.3-7.4-4.3&#10;&#9;&#9;&#9;c-0.5,0-1.1,0-1.8,0.1c-2.3,0.2-5.9,2.7-6.4,8.5v2.4c0.7,7.3,7.4,15.8,19.9,25.1c12.5-9.3,19.2-17.8,19.9-25.1v-2.4&#10;&#9;&#9;&#9;c-0.5-5.8-4.1-8.3-6.4-8.5C335.9,524,335.3,523.9,334.7,523.9L334.7,523.9z" style="fill: rgb(255, 255, 255);" transform="matrix(1, 0, 0, 1, -25.524940490722656, -11.74616527557373)"/><path class="st7" d="M479.6,281.4c0.9,0,1.9,0,2.9,0.1c6.2,0.6,13.4,6.3,14.3,17.2v3.6c-0.8,10.5-8.7,23.4-31.8,39.6&#10;&#9;&#9;&#9;c-23.1-16.2-31-29.1-31.8-39.6v-3.6c0.9-10.9,8.1-16.6,14.3-17.2c1-0.1,2-0.1,2.9-0.1c7.2,0,10.7,3.1,14.6,7.8&#10;&#9;&#9;&#9;C469,284.5,472.4,281.4,479.6,281.4 M479.6,288.3c-4.1,0-5.9,1.3-9.3,5.3L465,300l-5.3-6.4c-3.4-4.1-5.1-5.3-9.3-5.3&#10;&#9;&#9;&#9;c-0.7,0-1.4,0-2.2,0.1c-2.9,0.3-7.4,3.3-8,10.6v3c0.8,9.1,9.2,19.6,24.8,31.3c15.6-11.6,24-22.1,24.8-31.3v-3&#10;&#9;&#9;&#9;c-0.7-7.3-5.2-10.3-8-10.6C481,288.4,480.3,288.3,479.6,288.3L479.6,288.3z" style="fill: rgb(255, 255, 255);" transform="matrix(1, 0, 0, 1, -25.524940490722656, -11.74616527557373)"/><path class="st7" d="M658.5,451.6c0.8,0,1.6,0,2.5,0.1c5.4,0.5,11.5,5.4,12.3,14.8v3.1c-0.7,9-7.5,20.1-27.3,34&#10;&#9;&#9;&#9;c-19.8-13.9-26.6-25-27.3-34v-3.1c0.8-9.4,6.9-14.3,12.3-14.8c0.9-0.1,1.7-0.1,2.5-0.1c6.2,0,9.2,2.7,12.5,6.7&#10;&#9;&#9;&#9;C649.4,454.3,652.4,451.6,658.5,451.6 M658.5,457.6c-3.6,0-5,1.1-8,4.6l-4.6,5.5l-4.6-5.5c-2.9-3.5-4.4-4.6-8-4.6&#10;&#9;&#9;&#9;c-0.6,0-1.2,0-1.9,0.1c-2.5,0.2-6.3,2.9-6.9,9.1v2.6c0.7,7.8,7.9,16.9,21.3,26.9c13.4-10,20.6-19,21.3-26.9v-2.6&#10;&#9;&#9;&#9;c-0.6-6.3-4.4-8.9-6.9-9.1C659.8,457.7,659.1,457.6,658.5,457.6L658.5,457.6z" style="fill: rgb(255, 255, 255);" transform="matrix(1, 0, 0, 1, -25.524940490722656, -11.74616527557373)"/><path class="st7" d="M1007.6,569.5c0.8,0,1.6,0,2.5,0.1c5.4,0.5,11.5,5.4,12.3,14.8v3.1c-0.7,9-7.5,20.1-27.3,34&#10;&#9;&#9;&#9;c-19.8-13.9-26.6-25-27.3-34v-3.1c0.8-9.4,6.9-14.3,12.3-14.8c0.9-0.1,1.7-0.1,2.5-0.1c6.2,0,9.2,2.7,12.5,6.7&#10;&#9;&#9;&#9;C998.5,572.2,1001.4,569.5,1007.6,569.5 M1007.6,575.5c-3.6,0-5,1.1-8,4.6l-4.6,5.5l-4.6-5.5c-2.9-3.5-4.4-4.6-8-4.6&#10;&#9;&#9;&#9;c-0.6,0-1.2,0-1.9,0.1c-2.5,0.2-6.3,2.9-6.9,9.1v2.6c0.7,7.9,7.9,16.9,21.3,26.9c13.4-10,20.6-19,21.3-26.9v-2.6&#10;&#9;&#9;&#9;c-0.6-6.3-4.4-8.9-6.9-9.1C1008.8,575.5,1008.2,575.5,1007.6,575.5L1007.6,575.5z" style="fill: rgb(255, 255, 255);" transform="matrix(1, 0, 0, 1, -25.524940490722656, -11.74616527557373)"/><path class="st7" d="M827.4,366.6c1,0,2.1,0.1,3.2,0.2c7,0.7,15.1,7.1,16.1,19.4v4.1c-0.9,11.7-9.8,26.2-35.7,44.4&#10;&#9;&#9;&#9;c-25.9-18.2-34.8-32.7-35.7-44.4v-4.1c1-12.3,9.1-18.7,16.1-19.4c1.1-0.1,2.2-0.2,3.2-0.2c8.1,0,12,3.5,16.4,8.8&#10;&#9;&#9;&#9;C815.4,370.1,819.3,366.6,827.4,366.6 M827.4,374.5c-4.6,0-6.6,1.4-10.4,6l-6,7.1l-6-7.1c-3.8-4.6-5.8-6-10.4-6&#10;&#9;&#9;&#9;c-0.8,0-1.6,0-2.5,0.1c-3.2,0.3-8.3,3.8-9,11.9v3.4c1,10.3,10.3,22.1,27.9,35.1c17.6-13.1,27-24.9,27.9-35.1v-3.4&#10;&#9;&#9;&#9;c-0.8-8.2-5.8-11.6-9-11.9C829,374.5,828.2,374.5,827.4,374.5L827.4,374.5z" style="fill: rgb(255, 255, 255);" transform="matrix(1, 0, 0, 1, -25.524940490722656, -11.74616527557373)"/><path class="st1" d="M165,144.4c-10.2,0-14.5,3.1-22.9,13.2L129,173.3l-13.1-15.7c-8.4-10-12.7-13.2-22.9-13.2&#10;&#9;&#9;c-1.7,0-3.5,0.1-5.4,0.3c-7.1,0.7-18.1,8.2-19.8,26.2v7.5c2.1,22.5,22.7,48.5,61.3,77.2c38.6-28.7,59.2-54.6,61.3-77.2v-7.5&#10;&#9;&#9;c-1.7-18-12.7-25.5-19.8-26.2C168.5,144.5,166.7,144.4,165,144.4L165,144.4z" style="fill: rgb(237, 28, 36);" transform="matrix(1, 0, 0, 1, -25.524940490722656, -11.74616527557373)"/><path class="st2" d="M344,307.4c-7.6,0-10.8,2.3-17.1,9.9L317,329l-9.8-11.7c-6.3-7.5-9.5-9.9-17.1-9.9c-1.3,0-2.6,0.1-4.1,0.2&#10;&#9;&#9;c-5.3,0.5-13.6,6.2-14.8,19.6v5.6c1.6,16.9,17,36.3,45.9,57.7c28.9-21.5,44.3-40.9,45.9-57.7v-5.6c-1.3-13.4-9.5-19.1-14.8-19.6&#10;&#9;&#9;C346.6,307.5,345.2,307.4,344,307.4L344,307.4z" style="fill: rgb(0, 167, 157);" transform="matrix(1, 0, 0, 1, -25.524940490722656, -11.74616527557373)"/><path class="st3" d="M490,28c-10.5,0-14.8,3.2-23.5,13.5L453,57.6l-13.5-16.1C430.9,31.2,426.5,28,416,28c-1.7,0-3.6,0.1-5.6,0.3&#10;&#9;&#9;c-7.3,0.7-18.6,8.5-20.3,26.9v7.7c2.1,23.1,23.3,49.7,62.9,79.1c39.6-29.4,60.7-56,62.9-79.1v-7.7c-1.7-18.4-13-26.2-20.3-26.9&#10;&#9;&#9;C493.5,28.1,491.7,28,490,28L490,28z" style="fill: rgb(251, 173, 24);" transform="matrix(1, 0, 0, 1, -25.524940490722656, -11.74616527557373)"/><path class="st4" d="M669.6,260c-7,0-9.9,2.1-15.6,9l-9,10.7l-9-10.7c-5.8-6.9-8.7-9-15.6-9c-1.1,0-2.4,0.1-3.7,0.2&#10;&#9;&#9;c-4.8,0.5-12.4,5.6-13.5,17.9v5.1c1.4,15.4,15.5,33.1,41.9,52.8c26.4-19.6,40.5-37.3,41.9-52.8v-5.1c-1.2-12.3-8.7-17.4-13.6-17.9&#10;&#9;&#9;C672,260.1,670.8,260,669.6,260L669.6,260z" style="fill: rgb(0, 144, 214);" transform="matrix(1, 0, 0, 1, -25.524940490722656, -11.74616527557373)"/><path class="st5" d="M833.9,126.3c-9.3,0-13.2,2.9-20.9,12l-12,14.3l-12-14.3c-7.7-9.2-11.6-12-20.9-12c-1.5,0-3.2,0.1-5,0.3&#10;&#9;&#9;c-6.5,0.6-16.5,7.5-18.1,23.9v6.9c1.9,20.6,20.7,44.2,55.9,70.4c35.2-26.2,54-49.8,55.9-70.4v-6.8c-1.5-16.4-11.6-23.3-18.1-23.9&#10;&#9;&#9;C837.1,126.4,835.4,126.3,833.9,126.3L833.9,126.3z" style="fill: rgb(238, 42, 123);" transform="matrix(1, 0, 0, 1, -25.524940490722656, -11.74616527557373)"/><path class="st6" d="M1029,373.4c-7.6,0-10.8,2.3-17.1,9.9L1002,395l-9.8-11.7c-6.3-7.5-9.5-9.9-17.1-9.9c-1.3,0-2.6,0.1-4.1,0.2&#10;&#9;&#9;c-5.3,0.5-13.6,6.2-14.8,19.6v5.6c1.6,16.9,17,36.3,45.9,57.8c28.9-21.5,44.3-40.9,45.9-57.8v-5.6c-1.3-13.4-9.5-19.1-14.8-19.6&#10;&#9;&#9;C1031.6,373.5,1030.2,373.4,1029,373.4L1029,373.4z" style="fill: rgb(141, 198, 63);" transform="matrix(1, 0, 0, 1, -25.524940490722656, -11.74616527557373)"/>

</svg>